<mxfile host="app.diagrams.net" agent="Mozilla/5.0 (Windows NT 10.0; Win64; x64) AppleWebKit/537.36 (KHTML, like Gecko) Chrome/136.0.0.0 Safari/537.36" version="27.0.9">
  <diagram name="Page-1" id="fbVDKvVrY0pf_wrF8faw">
    <mxGraphModel dx="1281" dy="527" grid="1" gridSize="10" guides="1" tooltips="1" connect="1" arrows="1" fold="1" page="1" pageScale="1" pageWidth="1100" pageHeight="1700" math="0" shadow="0">
      <root>
        <mxCell id="0" />
        <mxCell id="1" parent="0" />
        <mxCell id="DJ12fH-5KLJPkDTYWNq8-1" value="&lt;h1 style=&quot;margin-top: 0px;&quot;&gt;Fantasy Football Stats App&lt;/h1&gt;&lt;p&gt;Web application utilizing AI and API calls in order for users to register their fantasy/yahoo rosters and determine best starting roster on a weekly basis&lt;/p&gt;" style="text;html=1;whiteSpace=wrap;overflow=hidden;rounded=0;" parent="1" vertex="1">
          <mxGeometry x="40" y="30" width="270" height="120" as="geometry" />
        </mxCell>
        <mxCell id="DJ12fH-5KLJPkDTYWNq8-6" value="" style="edgeStyle=orthogonalEdgeStyle;rounded=0;orthogonalLoop=1;jettySize=auto;html=1;" parent="1" source="DJ12fH-5KLJPkDTYWNq8-3" target="DJ12fH-5KLJPkDTYWNq8-5" edge="1">
          <mxGeometry relative="1" as="geometry" />
        </mxCell>
        <mxCell id="DJ12fH-5KLJPkDTYWNq8-3" value="Actor" style="shape=umlActor;verticalLabelPosition=bottom;verticalAlign=top;html=1;outlineConnect=0;" parent="1" vertex="1">
          <mxGeometry x="10" y="240" width="30" height="60" as="geometry" />
        </mxCell>
        <mxCell id="gkHLwNsvEn_gBr9r_9QI-3" value="" style="edgeStyle=orthogonalEdgeStyle;rounded=0;orthogonalLoop=1;jettySize=auto;html=1;" edge="1" parent="1" source="DJ12fH-5KLJPkDTYWNq8-5" target="gkHLwNsvEn_gBr9r_9QI-1">
          <mxGeometry relative="1" as="geometry" />
        </mxCell>
        <mxCell id="DJ12fH-5KLJPkDTYWNq8-5" value="Fantasy Football App Web Page" style="shape=process;whiteSpace=wrap;html=1;backgroundOutline=1;verticalAlign=top;" parent="1" vertex="1">
          <mxGeometry x="75" y="240" width="120" height="60" as="geometry" />
        </mxCell>
        <mxCell id="gkHLwNsvEn_gBr9r_9QI-8" value="" style="edgeStyle=orthogonalEdgeStyle;rounded=0;orthogonalLoop=1;jettySize=auto;html=1;" edge="1" parent="1" source="DJ12fH-5KLJPkDTYWNq8-8" target="gkHLwNsvEn_gBr9r_9QI-7">
          <mxGeometry relative="1" as="geometry" />
        </mxCell>
        <mxCell id="DJ12fH-5KLJPkDTYWNq8-8" value="Prompt Sign Up&lt;br&gt;First-time User&lt;div&gt;&lt;br&gt;&lt;/div&gt;" style="rounded=0;whiteSpace=wrap;html=1;" parent="1" vertex="1">
          <mxGeometry x="410" y="190" width="120" height="60" as="geometry" />
        </mxCell>
        <mxCell id="gkHLwNsvEn_gBr9r_9QI-17" value="" style="edgeStyle=orthogonalEdgeStyle;rounded=0;orthogonalLoop=1;jettySize=auto;html=1;" edge="1" parent="1" source="DJ12fH-5KLJPkDTYWNq8-11" target="gkHLwNsvEn_gBr9r_9QI-16">
          <mxGeometry relative="1" as="geometry" />
        </mxCell>
        <mxCell id="DJ12fH-5KLJPkDTYWNq8-11" value="Prompt Login&lt;br&gt;Returning User&lt;div&gt;&lt;br&gt;&lt;/div&gt;" style="rounded=1;whiteSpace=wrap;html=1;" parent="1" vertex="1">
          <mxGeometry x="250" y="350" width="120" height="60" as="geometry" />
        </mxCell>
        <mxCell id="gkHLwNsvEn_gBr9r_9QI-6" value="" style="edgeStyle=orthogonalEdgeStyle;rounded=0;orthogonalLoop=1;jettySize=auto;html=1;" edge="1" parent="1" source="gkHLwNsvEn_gBr9r_9QI-1" target="DJ12fH-5KLJPkDTYWNq8-11">
          <mxGeometry relative="1" as="geometry" />
        </mxCell>
        <mxCell id="gkHLwNsvEn_gBr9r_9QI-1" value="Registration&lt;br&gt;or Sign In" style="rhombus;whiteSpace=wrap;html=1;" vertex="1" parent="1">
          <mxGeometry x="260" y="225" width="100" height="90" as="geometry" />
        </mxCell>
        <mxCell id="gkHLwNsvEn_gBr9r_9QI-5" value="" style="curved=1;endArrow=classic;html=1;rounded=0;" edge="1" parent="1">
          <mxGeometry width="50" height="50" relative="1" as="geometry">
            <mxPoint x="360" y="270" as="sourcePoint" />
            <mxPoint x="410" y="220" as="targetPoint" />
            <Array as="points">
              <mxPoint x="410" y="270" />
              <mxPoint x="360" y="220" />
            </Array>
          </mxGeometry>
        </mxCell>
        <mxCell id="gkHLwNsvEn_gBr9r_9QI-10" value="" style="edgeStyle=orthogonalEdgeStyle;rounded=0;orthogonalLoop=1;jettySize=auto;html=1;" edge="1" parent="1" source="gkHLwNsvEn_gBr9r_9QI-7">
          <mxGeometry relative="1" as="geometry">
            <mxPoint x="810" y="220" as="targetPoint" />
          </mxGeometry>
        </mxCell>
        <mxCell id="gkHLwNsvEn_gBr9r_9QI-7" value="User Profile Creation&lt;br&gt;1. Name&lt;br&gt;2. Email&lt;br&gt;3. Fantasy App Sync" style="whiteSpace=wrap;html=1;rounded=0;" vertex="1" parent="1">
          <mxGeometry x="610" y="190" width="120" height="60" as="geometry" />
        </mxCell>
        <mxCell id="gkHLwNsvEn_gBr9r_9QI-15" value="" style="edgeStyle=orthogonalEdgeStyle;rounded=0;orthogonalLoop=1;jettySize=auto;html=1;" edge="1" parent="1" source="gkHLwNsvEn_gBr9r_9QI-11" target="gkHLwNsvEn_gBr9r_9QI-14">
          <mxGeometry relative="1" as="geometry" />
        </mxCell>
        <mxCell id="gkHLwNsvEn_gBr9r_9QI-11" value="Information goes to backend DB" style="shape=hexagon;perimeter=hexagonPerimeter2;whiteSpace=wrap;html=1;fixedSize=1;" vertex="1" parent="1">
          <mxGeometry x="810" y="180" width="120" height="80" as="geometry" />
        </mxCell>
        <mxCell id="gkHLwNsvEn_gBr9r_9QI-14" value="User redirected to login page or logged in and brought to dashboard" style="whiteSpace=wrap;html=1;" vertex="1" parent="1">
          <mxGeometry x="970" y="190" width="120" height="60" as="geometry" />
        </mxCell>
        <mxCell id="gkHLwNsvEn_gBr9r_9QI-21" value="" style="edgeStyle=orthogonalEdgeStyle;rounded=0;orthogonalLoop=1;jettySize=auto;html=1;" edge="1" parent="1" source="gkHLwNsvEn_gBr9r_9QI-16" target="gkHLwNsvEn_gBr9r_9QI-20">
          <mxGeometry relative="1" as="geometry" />
        </mxCell>
        <mxCell id="gkHLwNsvEn_gBr9r_9QI-23" value="" style="edgeStyle=orthogonalEdgeStyle;rounded=0;orthogonalLoop=1;jettySize=auto;html=1;" edge="1" parent="1" source="gkHLwNsvEn_gBr9r_9QI-16" target="gkHLwNsvEn_gBr9r_9QI-22">
          <mxGeometry relative="1" as="geometry" />
        </mxCell>
        <mxCell id="gkHLwNsvEn_gBr9r_9QI-16" value="User directed to dashboard at successful login" style="whiteSpace=wrap;html=1;rounded=1;" vertex="1" parent="1">
          <mxGeometry x="450" y="350" width="120" height="60" as="geometry" />
        </mxCell>
        <mxCell id="gkHLwNsvEn_gBr9r_9QI-20" value="Have a dashboard? What info showed?" style="ellipse;whiteSpace=wrap;html=1;rounded=1;" vertex="1" parent="1">
          <mxGeometry x="670" y="340" width="80" height="80" as="geometry" />
        </mxCell>
        <mxCell id="gkHLwNsvEn_gBr9r_9QI-25" value="" style="edgeStyle=orthogonalEdgeStyle;rounded=0;orthogonalLoop=1;jettySize=auto;html=1;" edge="1" parent="1" source="gkHLwNsvEn_gBr9r_9QI-22" target="gkHLwNsvEn_gBr9r_9QI-24">
          <mxGeometry relative="1" as="geometry" />
        </mxCell>
        <mxCell id="gkHLwNsvEn_gBr9r_9QI-27" value="" style="edgeStyle=orthogonalEdgeStyle;rounded=0;orthogonalLoop=1;jettySize=auto;html=1;" edge="1" parent="1" source="gkHLwNsvEn_gBr9r_9QI-22" target="gkHLwNsvEn_gBr9r_9QI-26">
          <mxGeometry relative="1" as="geometry" />
        </mxCell>
        <mxCell id="gkHLwNsvEn_gBr9r_9QI-29" value="" style="edgeStyle=orthogonalEdgeStyle;rounded=0;orthogonalLoop=1;jettySize=auto;html=1;" edge="1" parent="1" source="gkHLwNsvEn_gBr9r_9QI-22" target="gkHLwNsvEn_gBr9r_9QI-28">
          <mxGeometry relative="1" as="geometry" />
        </mxCell>
        <mxCell id="gkHLwNsvEn_gBr9r_9QI-22" value="Provide options to user" style="rhombus;whiteSpace=wrap;html=1;rounded=1;" vertex="1" parent="1">
          <mxGeometry x="470" y="480" width="80" height="80" as="geometry" />
        </mxCell>
        <mxCell id="gkHLwNsvEn_gBr9r_9QI-24" value="Sync/Update roster" style="rounded=1;whiteSpace=wrap;html=1;" vertex="1" parent="1">
          <mxGeometry x="230" y="580" width="120" height="60" as="geometry" />
        </mxCell>
        <mxCell id="gkHLwNsvEn_gBr9r_9QI-26" value="View stats" style="whiteSpace=wrap;html=1;rounded=1;" vertex="1" parent="1">
          <mxGeometry x="450" y="580" width="120" height="60" as="geometry" />
        </mxCell>
        <mxCell id="gkHLwNsvEn_gBr9r_9QI-28" value="Sit/Start Calculator" style="whiteSpace=wrap;html=1;rounded=1;" vertex="1" parent="1">
          <mxGeometry x="650" y="580" width="120" height="60" as="geometry" />
        </mxCell>
      </root>
    </mxGraphModel>
  </diagram>
</mxfile>
